<svg xmlns="http://www.w3.org/2000/svg" xmlns:xlink="http://www.w3.org/1999/xlink" width="750" zoomAndPan="magnify" viewBox="0 0 562.5 337.499995" height="450" preserveAspectRatio="xMidYMid meet" version="1.0"><defs><g/><clipPath id="68c84e2e00"><path d="M 0.167969 0 L 561.835938 0 L 561.835938 337 L 0.167969 337 Z M 0.167969 0 " clip-rule="nonzero"/></clipPath><clipPath id="2d38db9a0d"><path d="M 497 116 L 504 116 L 504 218.988281 L 497 218.988281 Z M 497 116 " clip-rule="nonzero"/></clipPath><clipPath id="00cd30496f"><path d="M 449.457031 107 L 498 107 L 498 131 L 449.457031 131 Z M 449.457031 107 " clip-rule="nonzero"/></clipPath><clipPath id="8bea3338b0"><path d="M 494 106.652344 L 507 106.652344 L 507 118 L 494 118 Z M 494 106.652344 " clip-rule="nonzero"/></clipPath><clipPath id="50b828eebe"><rect x="0" width="442" y="0" height="208"/></clipPath></defs><g clip-path="url(#68c84e2e00)"><path fill="#ffffff" d="M 0.167969 0 L 561.835938 0 L 561.835938 337 L 0.167969 337 Z M 0.167969 0 " fill-opacity="1" fill-rule="nonzero"/><path fill="#ffffff" d="M 0.167969 0 L 561.835938 0 L 561.835938 337 L 0.167969 337 Z M 0.167969 0 " fill-opacity="1" fill-rule="nonzero"/></g><g clip-path="url(#2d38db9a0d)"><path stroke-linecap="butt" transform="matrix(0.259809, 0, 0, 0.259809, 449.59962, 99.119663)" fill-opacity="1" fill="#404af0" fill-rule="nonzero" stroke-linejoin="bevel" d="M 195.553957 460.530546 L 197.68894 460.530546 L 208.694632 68.114498 L 184.548265 68.114498 Z M 195.553957 460.530546 " stroke="#ffffff" stroke-width="1" stroke-opacity="1" stroke-miterlimit="4"/></g><g clip-path="url(#00cd30496f)"><path stroke-linecap="butt" transform="matrix(0.259809, 0, 0, 0.259809, 449.59962, 99.119663)" fill-opacity="1" fill="#404af0" fill-rule="nonzero" stroke-linejoin="bevel" d="M 170.189747 119.128584 C 148.479066 121.519165 128.798123 99.327361 138.826533 94.110182 C 139.78878 92.155619 139.503113 91.133233 137.187708 91.50911 C 113.582604 94.335708 98.667788 77.210732 101.268859 59.349036 C 101.434246 58.146228 100.502069 57.905667 99.73528 57.860562 C 98.863244 57.815456 98.156594 58.732597 97.720576 59.349036 C 90.383449 69.678148 77.964458 75.947784 66.64303 82.578262 C 53.63767 90.186021 33.52071 99.9438 24.830423 101.251853 C 17.147488 102.409556 5.074305 103.627399 0.699092 98.169658 C -0.203014 96.861605 0.684056 96.711254 1.766583 96.200061 C 16.170207 89.88532 17.673717 91.283584 44.075348 76.699539 C 67.229398 63.889636 89.571554 47.065362 111.071743 37.56318 C 120.513784 33.383423 149.81719 29.579543 160.041056 41.848183 C 177.451699 62.762003 153.00463 71.858237 152.313016 75.556872 C 150.959857 82.698543 159.003634 95.959499 179.917455 91.118198 L 182.653843 90.351408 L 183.315387 115.805828 L 182.368176 116.256881 C 178.293665 118.015987 174.174048 118.918093 170.189747 119.128584 Z M 170.189747 119.128584 " stroke="#ffffff" stroke-width="1" stroke-opacity="1" stroke-miterlimit="4"/></g><path stroke-linecap="butt" transform="matrix(0.259809, 0, 0, 0.259809, 449.59962, 99.119663)" fill-opacity="1" fill="#404af0" fill-rule="nonzero" stroke-linejoin="bevel" d="M 92.03731 70.941097 C 92.728924 70.249482 95.856224 68.941429 96.036646 70.069061 C 96.517769 73.030975 98.32198 77.075416 100.321648 80.368103 C 100.998228 81.4807 99.509753 82.893999 98.577577 83.856245 C 85.16627 93.74934 69.364382 103.161311 55.697479 108.453665 C 51.30723 109.776754 46.435858 110.528509 41.744908 110.197736 C 38.587538 109.987245 34.197289 110.137596 32.678744 107.716945 C 32.332937 107.145612 32.829095 106.378822 33.265113 105.867628 C 54.479636 98.214764 70.732576 87.464669 92.03731 70.941097 Z M 92.03731 70.941097 " stroke="#ffffff" stroke-width="1" stroke-opacity="1" stroke-miterlimit="4"/><path stroke-linecap="butt" transform="matrix(0.259809, 0, 0, 0.259809, 449.59962, 99.119663)" fill-opacity="1" fill="#404af0" fill-rule="nonzero" stroke-linejoin="bevel" d="M 100.577245 86.457317 C 101.193684 85.885984 102.276211 85.194369 103.494054 85.645422 C 106.380793 88.562231 107.974513 89.960495 111.35741 91.253513 C 112.424902 91.674496 113.808131 92.967515 112.003919 94.320673 C 93.074731 108.333384 78.746283 120.256217 59.967446 115.760723 C 59.366042 115.625407 59.516393 113.971546 60.042622 113.700914 C 71.183629 108.092823 83.993532 101.928433 100.577245 86.457317 Z M 100.577245 86.457317 " stroke="#ffffff" stroke-width="1" stroke-opacity="1" stroke-miterlimit="4"/><path stroke-linecap="butt" transform="matrix(0.259809, 0, 0, 0.259809, 449.59962, 99.119663)" fill-opacity="1" fill="#404af0" fill-rule="nonzero" stroke-linejoin="bevel" d="M 115.943115 94.952147 C 118.905029 93.208076 116.439273 95.34306 129.249176 96.16999 C 130.903037 96.275236 129.05372 99.342396 128.467351 100.725625 C 122.603663 108.183033 112.605323 115.008968 104.185668 118.557251 C 100.096122 120.286287 94.608311 121.188393 90.5338 119.369146 C 90.142887 119.20376 90.052677 118.572286 89.82715 118.37683 C 88.985185 117.64011 95.284891 113.640774 101.103473 109.024999 C 106.636389 104.63475 114.304289 97.282588 115.943115 94.952147 Z M 115.943115 94.952147 " stroke="#ffffff" stroke-width="1" stroke-opacity="1" stroke-miterlimit="4"/><path stroke-linecap="butt" transform="matrix(0.259809, 0, 0, 0.259809, 449.59962, 99.119663)" fill-opacity="1" fill="#404af0" fill-rule="nonzero" stroke-linejoin="bevel" d="M 223.038115 119.128584 C 244.748796 121.519165 264.429739 99.327361 254.416364 94.110182 C 253.439082 92.155619 253.724749 91.133233 256.040154 91.50911 C 279.645258 94.335708 294.560074 77.210732 291.959003 59.349036 C 291.793616 58.146228 292.725793 57.905667 293.492583 57.860562 C 294.364618 57.815456 295.071268 58.732597 295.507286 59.349036 C 302.844413 69.678148 315.263404 75.947784 326.584832 82.578262 C 339.590192 90.186021 359.707152 99.9438 368.397439 101.251853 C 376.080374 102.409556 388.153557 103.627399 392.528771 98.169658 C 393.430876 96.861605 392.543806 96.711254 391.461279 96.200061 C 377.057655 89.88532 375.554145 91.283584 349.167549 76.699539 C 325.998464 63.889636 303.656309 47.065362 282.156119 37.56318 C 272.714078 33.383423 243.410672 29.579543 233.186806 41.848183 C 215.776163 62.762003 240.223232 71.858237 240.914846 75.556872 C 242.268005 82.698543 234.224228 95.959499 213.325442 91.118198 L 210.574019 90.351408 L 209.912475 115.805828 L 210.859686 116.256881 C 214.934197 118.015987 219.053814 118.918093 223.038115 119.128584 Z M 223.038115 119.128584 " stroke="#ffffff" stroke-width="1" stroke-opacity="1" stroke-miterlimit="4"/><path stroke-linecap="butt" transform="matrix(0.259809, 0, 0, 0.259809, 449.59962, 99.119663)" fill-opacity="1" fill="#404af0" fill-rule="nonzero" stroke-linejoin="bevel" d="M 301.205588 70.941097 C 300.498938 70.249482 297.386673 68.941429 297.206252 70.069061 C 296.725129 73.030975 294.905882 77.075416 292.906214 80.368103 C 292.229634 81.4807 293.718109 82.893999 294.66532 83.856245 C 308.061592 93.74934 323.86348 103.161311 337.530383 108.453665 C 341.920632 109.776754 346.792004 110.528509 351.482954 110.197736 C 354.640325 109.987245 359.030573 110.137596 360.549118 107.716945 C 360.894925 107.145612 360.398767 106.378822 359.962749 105.867628 C 338.763261 98.214764 322.495286 87.464669 301.205588 70.941097 Z M 301.205588 70.941097 " stroke="#ffffff" stroke-width="1" stroke-opacity="1" stroke-miterlimit="4"/><path stroke-linecap="butt" transform="matrix(0.259809, 0, 0, 0.259809, 449.59962, 99.119663)" fill-opacity="1" fill="#404af0" fill-rule="nonzero" stroke-linejoin="bevel" d="M 292.665652 86.457317 C 292.034178 85.885984 290.966686 85.194369 289.733808 85.645422 C 286.847069 88.562231 285.253349 89.960495 281.885487 91.253513 C 280.80296 91.674496 279.434766 92.967515 281.223943 94.320673 C 300.153131 108.333384 314.481579 120.256217 333.260416 115.760723 C 333.86182 115.625407 333.726504 113.971546 333.18524 113.700914 C 322.044233 108.092823 309.23433 101.928433 292.665652 86.457317 Z M 292.665652 86.457317 " stroke="#ffffff" stroke-width="1" stroke-opacity="1" stroke-miterlimit="4"/><path stroke-linecap="butt" transform="matrix(0.259809, 0, 0, 0.259809, 449.59962, 99.119663)" fill-opacity="1" fill="#404af0" fill-rule="nonzero" stroke-linejoin="bevel" d="M 277.284747 94.952147 C 274.337868 93.208076 276.788589 95.34306 263.978686 96.16999 C 262.324825 96.275236 264.174142 99.342396 264.760511 100.725625 C 270.624199 108.183033 280.622539 115.008968 289.057229 118.557251 C 293.13174 120.286287 298.634586 121.188393 302.694062 119.369146 C 303.084975 119.20376 303.175185 118.572286 303.415747 118.37683 C 304.242677 117.64011 297.942971 113.640774 292.124389 109.024999 C 286.606508 104.63475 278.923573 97.282588 277.284747 94.952147 Z M 277.284747 94.952147 " stroke="#ffffff" stroke-width="1" stroke-opacity="1" stroke-miterlimit="4"/><path fill="#404af0" d="M 500.679688 107.5625 C 503.320312 107.5625 505.464844 109.4375 505.464844 111.742188 C 505.464844 114.046875 503.320312 115.917969 500.679688 115.917969 C 498.039062 115.917969 495.902344 114.046875 495.902344 111.742188 C 495.902344 109.4375 498.039062 107.5625 500.679688 107.5625 Z M 500.679688 107.5625 " fill-opacity="1" fill-rule="nonzero"/><g clip-path="url(#8bea3338b0)"><path stroke-linecap="butt" transform="matrix(0.259809, 0, 0, 0.259809, 449.59962, 99.119663)" fill="none" stroke-linejoin="miter" d="M 196.606413 32.496352 C 206.770139 32.496352 215.024408 39.713199 215.024408 48.583906 C 215.024408 57.454614 206.770139 64.656426 196.606413 64.656426 C 186.442687 64.656426 178.218489 57.454614 178.218489 48.583906 C 178.218489 39.713199 186.442687 32.496352 196.606413 32.496352 Z M 196.606413 32.496352 " stroke="#ffffff" stroke-width="1" stroke-opacity="1" stroke-miterlimit="4"/></g><path stroke-linecap="butt" transform="matrix(0.259809, 0, 0, 0.259809, 449.59962, 99.119663)" fill-opacity="1" fill="#ffffff" fill-rule="nonzero" stroke-linejoin="bevel" d="M 201.49282 41.818112 C 200.620785 40.525094 201.868698 38.194654 204.635156 38.976479 C 215.29504 43.201341 210.032756 59.469317 198.245239 59.018264 C 196.441027 59.063369 195.854659 57.529789 197.207817 56.687824 C 202.364856 53.635699 206.694964 49.15524 201.49282 41.818112 Z M 201.49282 41.818112 " stroke="#000000" stroke-width="0.5" stroke-opacity="1" stroke-miterlimit="4"/><path stroke-linecap="butt" transform="matrix(0.259809, 0, 0, 0.259809, 449.59962, 99.119663)" fill-opacity="1" fill="#404af0" fill-rule="nonzero" stroke-linejoin="bevel" d="M 260.686 160.745735 C 261.873772 149.168709 251.213888 135.922788 234.224228 134.644805 C 228.315434 134.193752 219.444727 134.163682 214.302723 138.208123 C 209.431352 142.042073 222.166079 150.05578 228.841663 150.627114 C 237.787546 151.393904 242.493531 147.635129 244.102287 145.45504 C 244.64355 144.718321 245.635867 145.019023 245.996709 145.770777 C 250.056186 172.247584 219.15906 178.276658 196.621449 183.85468 C 201.297364 185.012382 205.597402 186.140014 209.175755 187.433033 C 215.490496 189.718368 220.873061 192.184124 225.488836 194.770161 C 243.170111 186.786524 259.137384 176.036429 260.686 160.745735 Z M 260.686 160.745735 " stroke="#ffffff" stroke-width="1" stroke-opacity="1" stroke-miterlimit="4"/><path stroke-linecap="butt" transform="matrix(0.259809, 0, 0, 0.259809, 449.59962, 99.119663)" fill-opacity="1" fill="#404af0" fill-rule="nonzero" stroke-linejoin="bevel" d="M 177.647155 392.61701 C 166.957201 402.149262 167.784131 416.312324 179.436332 426.44598 C 177.647155 416.026657 173.226837 408.178336 186.623109 398.616014 C 189.975935 396.225433 193.253587 394.496397 196.621449 392.842537 C 192.847639 390.978184 188.938514 389.234113 184.668546 386.753322 C 181.962228 388.948446 179.526543 390.948114 177.647155 392.61701 Z M 177.647155 392.61701 " stroke="#ffffff" stroke-width="1" stroke-opacity="1" stroke-miterlimit="4"/><path stroke-linecap="butt" transform="matrix(0.259809, 0, 0, 0.259809, 449.59962, 99.119663)" fill-opacity="1" fill="#404af0" fill-rule="nonzero" stroke-linejoin="bevel" d="M 218.287024 266.592822 C 211.310739 262.713767 203.672909 259.285764 196.621449 255.842727 C 192.501832 253.828024 188.577671 251.798286 185.074494 249.678337 C 165.122919 237.514943 164.972568 216.826649 194.050447 206.692993 C 194.892412 206.407326 195.749413 206.106624 196.621449 205.805922 C 187.916127 202.783868 177.587015 199.205514 167.769096 194.770161 C 132.481722 214.601454 144.314344 241.63456 155.004298 252.354584 C 160.236512 257.616869 167.378184 262.232644 174.955873 266.592822 C 182.17272 270.757544 189.795514 274.666669 196.621449 278.696075 C 201.793522 281.7482 206.514543 284.860465 210.213177 288.168187 C 223.308747 299.880528 212.513547 313.021203 207.115947 316.569486 C 203.748085 318.764611 200.199802 320.749243 196.621449 322.673736 C 204.169068 326.748247 211.882073 330.642338 218.437375 336.039938 C 227.187802 330.101074 235.081228 322.53842 239.456442 312.434834 C 249.544992 289.130433 235.953264 276.410741 218.287024 266.592822 Z M 218.287024 266.592822 " stroke="#ffffff" stroke-width="1" stroke-opacity="1" stroke-miterlimit="4"/><path stroke-linecap="butt" transform="matrix(0.259809, 0, 0, 0.259809, 449.59962, 99.119663)" fill-opacity="1" fill="#404af0" fill-rule="nonzero" stroke-linejoin="bevel" d="M 225.473801 194.785196 C 220.873061 192.199159 215.475461 189.733403 209.16072 187.433033 C 205.597402 186.140014 201.297364 185.012382 196.621449 183.85468 C 174.083837 178.291694 143.201747 172.247584 147.261223 145.770777 C 147.60703 145.019023 148.599347 144.718321 149.14061 145.45504 C 150.734331 147.650165 155.455351 151.393904 164.401234 150.627114 C 171.091853 150.05578 183.811545 142.042073 178.955209 138.208123 C 173.813205 134.163682 164.927463 134.193752 159.018669 134.644805 C 142.029009 135.922788 131.369125 149.183745 132.541863 160.76077 C 134.105513 176.036429 150.087821 186.801559 167.769096 194.785196 C 177.587015 199.205514 187.916127 202.783868 196.621449 205.805922 C 197.493484 206.106624 198.350485 206.407326 199.19245 206.692993 C 228.270329 216.826649 228.119978 237.529978 208.168404 249.678337 C 204.680261 251.798286 200.741065 253.828024 196.621449 255.842727 C 203.672909 259.285764 211.295704 262.728802 218.287024 266.607857 C 225.864713 262.232644 232.99135 257.616869 238.238599 252.369619 C 248.928553 241.63456 260.761175 214.601454 225.473801 194.785196 Z M 225.473801 194.785196 " stroke="#ffffff" stroke-width="1" stroke-opacity="1" stroke-miterlimit="4"/><path stroke-linecap="butt" transform="matrix(0.259809, 0, 0, 0.259809, 449.59962, 99.119663)" fill-opacity="1" fill="#404af0" fill-rule="nonzero" stroke-linejoin="bevel" d="M 215.610777 392.61701 C 213.73139 390.948114 211.280669 388.948446 208.589386 386.753322 C 204.830612 383.686162 200.590714 380.22809 196.621449 376.649736 C 193.839956 374.12384 191.193778 371.552838 188.968584 369.011907 C 179.676894 358.382093 188.728022 351.541123 195.839623 348.248437 C 196.09522 348.128156 196.365852 348.007875 196.621449 347.887595 C 189.780479 344.700154 182.022369 340.926344 174.820557 336.039938 C 173.317047 337.272816 171.873678 338.565834 170.520519 339.979133 C 158.116564 352.819107 161.34911 368.079731 170.520519 376.349034 C 175.767768 381.08509 180.398578 384.272531 184.668546 386.753322 C 188.938514 389.219078 192.847639 390.978184 196.621449 392.842537 C 199.98931 394.496397 203.266962 396.225433 206.619788 398.616014 C 220.01606 408.178336 215.610777 416.011622 213.806565 426.44598 C 225.458766 416.312324 226.300731 402.149262 215.610777 392.61701 Z M 215.610777 392.61701 " stroke="#ffffff" stroke-width="1" stroke-opacity="1" stroke-miterlimit="4"/><path stroke-linecap="butt" transform="matrix(0.259809, 0, 0, 0.259809, 449.59962, 99.119663)" fill-opacity="1" fill="#404af0" fill-rule="nonzero" stroke-linejoin="bevel" d="M 222.737413 339.964098 C 221.369219 338.565834 219.92585 337.257781 218.437375 336.024903 C 211.882073 330.642338 204.169068 326.748247 196.621449 322.673736 C 193.043095 320.749243 189.494812 318.764611 186.12695 316.569486 C 180.72935 313.021203 169.93415 299.880528 183.02972 288.168187 C 186.728354 284.860465 191.449375 281.7482 196.621449 278.696075 C 189.795514 274.666669 182.17272 270.742509 174.955873 266.592822 C 157.289633 276.410741 143.71294 289.115398 153.786455 312.434834 C 158.161669 322.53842 166.07013 330.101074 174.820557 336.024903 C 182.022369 340.911309 189.780479 344.700154 196.621449 347.87256 C 196.89208 347.99284 197.147677 348.113121 197.403274 348.233402 C 204.52991 351.541123 213.581039 358.367058 204.274313 368.996872 C 202.064154 371.537803 199.417977 374.12384 196.621449 376.634701 C 200.590714 380.22809 204.830612 383.686162 208.589386 386.738287 C 212.844319 384.272531 217.475129 381.08509 222.722378 376.349034 C 231.893788 368.079731 235.141369 352.804072 222.737413 339.964098 Z M 222.737413 339.964098 " stroke="#ffffff" stroke-width="1" stroke-opacity="1" stroke-miterlimit="4"/><g transform="matrix(1, 0, 0, 1, 9, 54)"><g clip-path="url(#50b828eebe)"><g fill="#404af0" fill-opacity="1"><g transform="translate(1.069984, 162.392617)"><g><path d="M 83.925781 0 L 83.925781 -24.207031 L 30.734375 -24.207031 L 30.734375 -81.855469 L 83.925781 -81.855469 L 83.925781 -106.222656 L 4.140625 -106.222656 L 4.140625 0 Z M 83.925781 0 "/></g></g></g><g fill="#404af0" fill-opacity="1"><g transform="translate(88.180409, 162.392617)"><g><path d="M 83.925781 0 L 68.320312 -29.621094 L 83.925781 -29.621094 L 83.925781 -106.222656 L 4.140625 -106.222656 L 4.140625 0 L 30.734375 0 L 30.734375 -29.621094 L 42.203125 -29.621094 L 57.332031 0 Z M 57.332031 -53.828125 L 30.734375 -53.828125 L 30.734375 -81.855469 L 57.332031 -81.855469 Z M 57.332031 -53.828125 "/></g></g></g><g fill="#404af0" fill-opacity="1"><g transform="translate(176.246347, 162.392617)"><g><path d="M 83.925781 0 L 83.925781 -106.222656 L 4.140625 -106.222656 L 4.140625 0 Z M 57.332031 -24.207031 L 30.734375 -24.207031 L 30.734375 -81.855469 L 57.332031 -81.855469 Z M 57.332031 -24.207031 "/></g></g></g><g fill="#404af0" fill-opacity="1"><g transform="translate(264.312303, 162.392617)"><g><path d="M 83.925781 0 L 83.925781 -41.722656 L 72.140625 -53.347656 L 83.925781 -65.132812 L 83.925781 -106.222656 L 4.140625 -106.222656 L 4.140625 0 Z M 57.332031 -65.132812 L 30.734375 -65.132812 L 30.734375 -81.855469 L 57.332031 -81.855469 Z M 57.332031 -24.207031 L 30.734375 -24.207031 L 30.734375 -41.722656 L 57.332031 -41.722656 Z M 57.332031 -24.207031 "/></g></g></g><g fill="#404af0" fill-opacity="1"><g transform="translate(352.378259, 162.392617)"><g><path d="M 83.925781 0 L 83.925781 -106.222656 L 4.140625 -106.222656 L 4.140625 0 Z M 57.332031 -24.207031 L 30.734375 -24.207031 L 30.734375 -81.855469 L 57.332031 -81.855469 Z M 57.332031 -24.207031 "/></g></g></g></g></g></svg>